<?xml version="1.0" standalone="no"?><!DOCTYPE svg PUBLIC "-//W3C//DTD SVG 1.1//EN" "http://www.w3.org/Graphics/SVG/1.1/DTD/svg11.dtd"><svg t="1631292052395" class="icon" viewBox="0 0 1024 1024" version="1.1" xmlns="http://www.w3.org/2000/svg" p-id="3012" xmlns:xlink="http://www.w3.org/1999/xlink" width="200" height="200"><defs><style type="text/css"></style></defs><path d="M813.511 256h153.6L699.733 0v147.911c0 59.733 51.2 108.089 113.778 108.089z" p-id="3013"></path><path d="M813.511 310.044c-93.867 0-170.667-73.955-170.667-162.133V0H170.667C108.089 0 56.889 48.356 56.889 108.089v804.978c0 62.577 51.2 110.933 113.778 110.933h682.666c62.578 0 113.778-48.356 113.778-108.089V310.044h-153.6z m-554.667 34.134h267.378c17.067 0 28.445 11.378 28.445 28.444s-11.378 28.445-28.445 28.445H258.844c-17.066 0-28.444-11.378-28.444-28.445s11.378-28.444 28.444-28.444z m506.312 409.6H258.844c-17.066 0-28.444-11.378-28.444-28.445s11.378-28.444 28.444-28.444H768c17.067 0 28.444 11.378 28.444 28.444s-14.222 28.445-31.288 28.445z m0-182.045H258.844c-17.066 0-28.444-11.377-28.444-28.444 0-14.222 11.378-28.445 28.444-28.445H768c17.067 0 28.444 11.378 28.444 28.445-2.844 17.067-14.222 28.444-31.288 28.444z" p-id="3014"></path><path d="M813.511 256h153.6L699.733 0v147.911c0 59.733 51.2 108.089 113.778 108.089z" p-id="3015"></path></svg>