<?xml version="1.0" standalone="no"?><!DOCTYPE svg PUBLIC "-//W3C//DTD SVG 1.1//EN" "http://www.w3.org/Graphics/SVG/1.1/DTD/svg11.dtd"><svg t="1631291994205" class="icon" viewBox="0 0 1024 1024" version="1.1" xmlns="http://www.w3.org/2000/svg" p-id="2476" xmlns:xlink="http://www.w3.org/1999/xlink" width="200" height="200"><defs><style type="text/css"></style></defs><path d="M867.204675 444.604503c-2.394638-1.596426-3.991064-3.991064-7.183915-4.789277-4.789277-3.991064-11.174979-6.385702-17.560681-6.385702h-271.392335L662.86221 40.70885c0.798213-3.991064 0.798213-7.982128 0-11.973191 0-11.174979-7.183915-20.753532-17.56068-24.744595-10.376766-3.991064-22.349957-1.596426-29.533872 6.385702L84.956178 542.784671c-5.587489 5.587489-8.78034 13.569617-7.982128 21.551744-0.798213 7.982128 2.394638 15.166042 7.183915 20.753532 5.587489 5.587489 12.771404 8.78034 20.753532 8.78034h279.374463L291.693281 981.801685c-0.798213 2.394638-0.798213 3.991064-0.798213 6.385702-3.991064 11.973191 0.798213 25.542808 11.973191 31.92851 11.174979 6.385702 24.744595 4.789277 34.323148-3.991064l530.81148-532.407905c9.578553-11.174979 9.578553-27.937446-0.798212-39.112425z m0 0" p-id="2477"></path></svg>