<?xml version="1.0" standalone="no"?><!DOCTYPE svg PUBLIC "-//W3C//DTD SVG 1.1//EN" "http://www.w3.org/Graphics/SVG/1.1/DTD/svg11.dtd"><svg t="1631292046392" class="icon" viewBox="0 0 1024 1024" version="1.1" xmlns="http://www.w3.org/2000/svg" p-id="2879" xmlns:xlink="http://www.w3.org/1999/xlink" width="200" height="200"><defs><style type="text/css"></style></defs><path d="M998.4 711.68l-119.467-512c-6.826-42.667-42.666-75.093-87.04-76.8H232.107c-44.374 1.707-80.214 35.84-87.04 78.507L25.6 711.68c-5.12 13.653-6.827 29.013-6.827 42.667 0 76.8 63.147 139.946 141.654 139.946H865.28c78.507 0 141.653-63.146 141.653-139.946 0-13.654-3.413-29.014-8.533-42.667zM394.24 366.933c1.707-51.2 56.32-92.16 124.587-92.16S640 315.733 640 365.227c44.373-1.707 81.92 23.893 83.627 58.026s-34.134 63.147-78.507 64.854h-6.827l-245.76 1.706c-44.373 0-80.213-27.306-80.213-59.733 0-35.84 37.547-63.147 81.92-63.147z m471.04 459.094H160.427c-39.254 0-69.974-30.72-69.974-69.974s32.427-69.973 69.974-69.973H865.28c39.253 0 69.973 30.72 69.973 69.973 1.707 37.547-30.72 69.974-69.973 69.974z m-35.84-92.16c-11.947 0-22.187 8.533-23.893 20.48 0 11.946 8.533 22.186 20.48 23.893h3.413c11.947 0 22.187-10.24 22.187-22.187 0-13.653-8.534-22.186-22.187-22.186z m-46.08 22.186c0-25.6 20.48-46.08 46.08-46.08s46.08 20.48 46.08 46.08-20.48 46.08-46.08 46.08-46.08-20.48-46.08-46.08z" p-id="2880"></path></svg>