<?xml version="1.0" standalone="no"?><!DOCTYPE svg PUBLIC "-//W3C//DTD SVG 1.1//EN" "http://www.w3.org/Graphics/SVG/1.1/DTD/svg11.dtd"><svg t="1633935575701" class="icon" viewBox="0 0 1024 1024" version="1.1" xmlns="http://www.w3.org/2000/svg" p-id="1707" xmlns:xlink="http://www.w3.org/1999/xlink" width="200" height="200"><defs><style type="text/css"></style></defs><path d="M847.780092 0.116068H212.511766a61.616251 61.616251 0 0 0-65.278199 65.278199v127.372095H112.206241a31.843024 31.843024 0 0 0 0 63.686048h35.027326v127.372095h-31.843023a31.843024 31.843024 0 1 0 0 63.686048h31.843023v128.964246h-31.843023a31.843024 31.843024 0 0 0 0 63.686048h31.843023v127.372095h-31.843023a31.843024 31.843024 0 0 0 0 63.686048h31.843023v128.964247a59.864885 59.864885 0 0 0 63.686048 63.686047h636.860477a95.529072 95.529072 0 0 0 95.529072-95.529071v-827.91862a95.529072 95.529072 0 0 0-95.529072-100.305525z m-636.860477 955.290715v-128.964246h33.435175a31.843024 31.843024 0 1 0 0-63.686048H210.919615v-127.372096h33.435175a31.843024 31.843024 0 1 0 0-63.686047H210.919615v-128.964247h33.435175a31.843024 31.843024 0 0 0 0-63.686047H210.919615v-127.372096h30.250873a31.843024 31.843024 0 0 0 0-63.686048H210.919615V59.025662h509.488382v891.604668h-509.488382z m668.703501-31.843024a31.843024 31.843024 0 0 1-31.843024 31.843024h-63.686048V63.802116h63.686048a31.843024 31.843024 0 0 1 31.843024 31.843023z" p-id="1708"></path></svg>