<?xml version="1.0" standalone="no"?><!DOCTYPE svg PUBLIC "-//W3C//DTD SVG 1.1//EN" "http://www.w3.org/Graphics/SVG/1.1/DTD/svg11.dtd"><svg t="1631292111276" class="icon" viewBox="0 0 1024 1024" version="1.1" xmlns="http://www.w3.org/2000/svg" p-id="3147" xmlns:xlink="http://www.w3.org/1999/xlink" width="200" height="200"><defs><style type="text/css"></style></defs><path d="M585.101 417.617c12.423 6.115 25.219 11.39 36.962 18.393 57.775 34.2 93.576 84.361 106.341 150.402 2.7 14.21 3.706 28.867 3.757 43.306 0.327 90.88 0.14 181.767 0.14 272.648v6.157c-147.277 24.736-294.026 24.695-440.983 0.052-0.103-1.695-0.228-2.783-0.228-3.934 0-93.897-0.554-187.774 0.254-281.697 0.757-89.84 56.703-169.158 140.484-201.808 2.207-0.84 4.42-1.752 7.483-3.022-46.808-22.165-79.51-56.37-96.918-104.392-13.651-37.635-14.03-75.893-2.28-114.005 22.984-74.691 92.58-125.61 171.36-126.04 78.277-0.43 149.392 51.758 171.942 126.651 13.09 43.461 10.712 86.238-8.194 127.594-18.803 41.16-49.473 70.768-90.12 89.695z m188.894 419.952v-7.68c0-66.12-0.02-132.29 0-198.358 0.02-37.267-6.473-73.193-21.238-107.496-0.54-1.223-0.99-2.462-1.56-3.705-5.649-12.304-5.773-12.433 4.322-21.135 11.34-9.82 24.177-17.434 37.859-23.498 3.597-1.57 7.276-2.964 12.127-4.949-32.754-15.656-56.028-39.071-68.954-71.902-13.003-32.91-12.52-66.073 0.887-98.749 21.89-53.354 76.945-85.605 135.119-79.718 55.8 5.686 102.863 48.359 114.125 104.304 11.65 57.692-16.087 117.877-75.271 145.868 2.384 1.042 4.052 1.824 5.814 2.612 58.118 25.14 92.172 68.762 100.614 131.75 0.918 6.785 1.104 13.58 1.125 20.384 0.073 65.585 0.052 131.124 0.052 196.683v5.882c-81.248 13.739-162.437 17.149-245.021 9.707zM111.707 470.82c-72.255-34.05-88.062-110.29-71.26-160.405 18.693-55.842 69.643-91.312 125.765-90.674 63.559 0.71 111.89 44.274 125.765 98.09 15.174 58.656-11.568 123.894-73.629 152.864 2.56 1.14 4.488 2.078 6.494 2.866 18.268 7.235 34.562 17.61 49.146 30.774 2.918 2.643 3.954 4.597 2 8.505-18.47 37.169-26.513 76.774-26.482 118.177 0.046 66.3 0 132.648 0 198.948v7.592c-82.413 7.479-163.753 4.048-245.145-9.717v-5.861c0-65.793-0.658-131.56 0.176-197.248 0.918-68.767 33.288-118.281 94.944-148.677 3.835-1.933 7.867-3.38 12.226-5.234z" p-id="3148"></path></svg>