<?xml version="1.0" standalone="no"?><!DOCTYPE svg PUBLIC "-//W3C//DTD SVG 1.1//EN" "http://www.w3.org/Graphics/SVG/1.1/DTD/svg11.dtd"><svg t="1604943935050" class="icon" viewBox="0 0 1024 1024" version="1.1" xmlns="http://www.w3.org/2000/svg" p-id="15788" xmlns:xlink="http://www.w3.org/1999/xlink" width="200" height="200"><defs><style type="text/css"></style></defs><path d="M960 920H64c-26.464 0-48-21.536-48-48s21.536-48 48-48h896c26.464 0 48 21.536 48 48s-21.536 48-48 48z m-896-80c-17.648 0-32 14.352-32 32s14.352 32 32 32h896c17.648 0 32-14.352 32-32s-14.352-32-32-32H64z" fill="#263238" p-id="15789"></path><path d="M552 880h-80c-13.232 0-24-10.768-24-24V832a8 8 0 0 1 16 0v24a8 8 0 0 0 8 8h80a8 8 0 0 0 8-8V832a8 8 0 0 1 16 0v24c0 13.232-10.768 24-24 24zM200 88h-64a8 8 0 0 1 0-16h64a8 8 0 0 1 0 16z" fill="#263238" p-id="15790"></path><path d="M168 120A8 8 0 0 1 160 112V48a8 8 0 0 1 16 0v64a8 8 0 0 1-8 8zM88 192h-64a8 8 0 0 1 0-16h64a8 8 0 0 1 0 16z" fill="#263238" p-id="15791"></path><path d="M56 224a8 8 0 0 1-8-8v-64a8 8 0 0 1 16 0v64a8 8 0 0 1-8 8zM848 760H176c-13.232 0-24-10.768-24-24V320c0-13.232 10.768-24 24-24h672c13.232 0 24 10.768 24 24v416c0 13.232-10.768 24-24 24z m-672-448a8 8 0 0 0-8 8v416a8 8 0 0 0 8 8h672a8 8 0 0 0 8-8V320a8 8 0 0 0-8-8H176zM112 984H80a8 8 0 0 1 0-16h32a8 8 0 0 1 0 16zM464 984H144a8 8 0 0 1 0-16h320a8 8 0 0 1 0 16zM864 200h-32a8 8 0 0 1 0-16h32a8 8 0 0 1 0 16zM800 200H480a8 8 0 0 1 0-16h320a8 8 0 0 1 0 16z" fill="#263238" p-id="15792"></path><path d="M912 808a8 8 0 0 1-8-8V296c0-17.648-14.352-32-32-32h-720c-17.648 0-32 14.352-32 32V800a8 8 0 0 1-16 0V296c0-26.464 21.536-48 48-48h720c26.464 0 48 21.536 48 48V800a8 8 0 0 1-8 8z" fill="#263238" p-id="15793"></path><path d="M864 400H160v-80a16 16 0 0 1 16-16h672a16 16 0 0 1 16 16v80z" fill="#FFD740" p-id="15794"></path><path d="M864 408H160a8 8 0 0 1-8-8v-80c0-13.232 10.768-24 24-24h672c13.232 0 24 10.768 24 24v80a8 8 0 0 1-8 8z m-696-16h688V320a8 8 0 0 0-8-8H176a8 8 0 0 0-8 8v72z" fill="#263238" p-id="15795"></path><path d="M240 480h208v208H240z" fill="#4DB6AC" p-id="15796"></path><path d="M448 696H240a8 8 0 0 1-8-8V480a8 8 0 0 1 8-8h208a8 8 0 0 1 8 8v208a8 8 0 0 1-8 8z m-200-16h192v-192h-192v192z" fill="#263238" p-id="15797"></path><path d="M528 480h256v64H528z" fill="#40C4FF" p-id="15798"></path><path d="M784 552H528a8 8 0 0 1-8-8v-64a8 8 0 0 1 8-8h256a8 8 0 0 1 8 8v64a8 8 0 0 1-8 8z m-248-16h240v-48h-240v48z" fill="#263238" p-id="15799"></path><path d="M784 616H528a8 8 0 0 1 0-16h256a8 8 0 0 1 0 16z" fill="#263238" p-id="15800"></path><path d="M656 680h-128a8 8 0 0 1 0-16h128a8 8 0 0 1 0 16z" fill="#263238" p-id="15801"></path></svg>